Coordinates
version=1
nRows=10
nColumns=63
inDegrees=yes

Units are S.I. units (second, meters, Newtons, ...)
If the header above contains a line with 'inDegrees', this indicates whether rotational values are in degrees (yes) or radians (no).

endheader
time	pelvis_tilt	pelvis_list	pelvis_rotation	pelvis_tx	pelvis_ty	pelvis_tz	hip_flexion_r	hip_adduction_r	hip_rotation_r	knee_angle_r	knee_angle_r_beta	ankle_angle_r	subtalar_angle_r	mtp_angle_r	hip_flexion_l	hip_adduction_l	hip_rotation_l	knee_angle_l	knee_angle_l_beta	ankle_angle_l	subtalar_angle_l	mtp_angle_l	L5_S1_Flex_Ext	L5_S1_Lat_Bending	L5_S1_axial_rotation	L4_L5_Flex_Ext	L4_L5_Lat_Bending	L4_L5_axial_rotation	L3_L4_Flex_Ext	L3_L4_Lat_Bending	L3_L4_axial_rotation	L2_L3_Flex_Ext	L2_L3_Lat_Bending	L2_L3_axial_rotation	L1_L2_Flex_Ext	L1_L2_Lat_Bending	L1_L2_axial_rotation	L1_T12_Flex_Ext	L1_T12_Lat_Bending	L1_T12_axial_rotation	Abs_r3	Abs_r2	Abs_r1	Abs_t1	Abs_t2	neck_flexion	neck_bending	neck_rotation	arm_flex_r	arm_add_r	arm_rot_r	elbow_flex_r	pro_sup_r	wrist_flex_r	wrist_dev_r	arm_flex_l	arm_add_l	arm_rot_l	elbow_flex_l	pro_sup_l	wrist_flex_l	wrist_dev_l
      6.20000000	      0.59508886	   -164.92642603	    -63.14464000	      0.15322259	      0.02217848	     -0.07818871	     -3.84407157	    -24.74111356	     26.38036391	     11.26200931	      0.19655914	      0.00000000	      0.00000000	      0.00000000	     20.21496293	    -20.22678438	    -38.90306401	     22.38897258	      0.39076129	      0.00000000	      0.00000000	      0.00000000	      0.01792572	      0.31486126	     -2.34005056	      0.03328986	      0.41876548	     -2.48630372	      0.02945017	      0.76555367	     -2.48630372	      0.02048731	      0.76555367	     -2.04754424	      0.01664583	      0.64206508	     -1.90129108	      0.01024276	      0.48772009	     -1.75503792	      0.12804164	      3.56177356	    -13.01465918	      0.00000000	      0.00000000	     24.17618221	     14.13015906	     21.98582098	     -5.45328720	    -64.76179979	    -81.30908997	     21.95582379	     89.99559364	      0.00000000	      0.00000000	    -13.94195445	    -48.46319023	    -28.99379903	     31.58602483	     89.99559364	      0.00000000	      0.00000000
      6.40000000	      1.22991672	   -165.00597609	    -60.92855466	      0.19669785	      0.02353112	     -0.07729322	     -3.36947212	    -24.87093084	     24.18618027	     14.70921773	      0.25672428	      0.00000000	      0.00000000	      0.00000000	     21.38256158	    -20.34116287	    -39.27332765	     26.36122549	      0.46009018	      0.00000000	      0.00000000	      0.00000000	      0.03051415	      0.43708582	     -2.30963314	      0.05666783	      0.58132414	     -2.45398521	      0.05013170	      1.06273046	     -2.45398521	      0.03487462	      1.06273046	     -2.02092900	      0.02833544	      0.89130540	     -1.87657693	      0.01743579	      0.67704593	     -1.73222486	      0.21795952	      4.94440219	    -12.84548664	      0.00000000	      0.00000000	     25.72702221	     16.09874954	     24.94369404	     -1.14280061	    -52.67277246	    -83.21453813	     25.18162432	     89.99559364	      0.00000000	      0.00000000	    -16.95449860	    -46.02346876	    -30.14088255	     38.75901638	     89.99559364	      0.00000000	      0.00000000
      6.60000000	      2.20921744	   -165.24194788	    -58.06485002	      0.23401722	      0.02503956	     -0.07470410	     -3.32756482	    -23.93349348	     24.08728213	     17.83825810	      0.31133634	      0.00000000	      0.00000000	      0.00000000	     22.65706099	    -20.83040121	    -39.46842906	     30.20713039	      0.52721388	      0.00000000	      0.00000000	      0.00000000	      0.03782643	      0.57940495	     -2.18069948	      0.07024747	      0.77060858	     -2.31699320	      0.06214505	      1.40876519	     -2.31699320	      0.04323183	      1.40876519	     -1.90811204	      0.03512562	      1.18152257	     -1.77181833	      0.02161402	      0.89749826	     -1.63552461	      0.27019042	      6.55434465	    -12.12839630	      0.00000000	      0.00000000	     25.25447109	     23.97762472	     32.52984401	      2.33928183	    -42.20413234	    -85.94964070	     26.66244955	     89.99559364	      0.00000000	      0.00000000	    -19.59625834	    -42.92731640	    -34.78349055	     48.24744286	     89.99559364	      0.00000000	      0.00000000
      6.80000000	      3.33394011	   -165.71020365	    -55.20653637	      0.26594983	      0.02382214	     -0.07196715	     -2.91708543	    -22.15186383	     23.66126119	     21.00436866	      0.36659539	      0.00000000	      0.00000000	      0.00000000	     23.21017504	    -20.93656226	    -39.48982092	     32.12745012	      0.56072978	      0.00000000	      0.00000000	      0.00000000	      0.04239446	      0.67973551	     -1.68737656	      0.07873075	      0.90404823	     -1.79283759	      0.06964986	      1.65270892	     -1.79283759	      0.04845263	      1.65270892	     -1.47645449	      0.03936750	      1.38611665	     -1.37099345	      0.02422419	      1.05291030	     -1.26553242	      0.30281939	      7.68930403	     -9.38468220	      0.00000000	      0.00000000	     25.91047202	     25.00524650	     33.51608127	      7.47028102	    -29.45110261	    -86.54334622	     30.28428107	     89.99559364	      0.00000000	      0.00000000	    -20.79460993	    -40.34551261	    -37.70720769	     60.14648718	     89.99559364	      0.00000000	      0.00000000
      7.00000000	      3.49071591	   -166.05461138	    -52.33952145	      0.29150717	      0.01805917	     -0.07012839	     -2.49311399	    -20.41516817	     23.27853521	     24.48035980	      0.42726288	      0.00000000	      0.00000000	      0.00000000	     22.68820881	    -19.86121708	    -39.47668674	     32.36407539	      0.56485967	      0.00000000	      0.00000000	      0.00000000	      0.04103939	      0.59731618	     -0.85831695	      0.07621424	      0.79443053	     -0.91196176	      0.06742361	      1.45231457	     -0.91196176	      0.04690391	      1.45231457	     -0.75102733	      0.03810917	      1.21804716	     -0.69738252	      0.02344990	      0.92524277	     -0.64373771	      0.29314023	      6.75696015	     -4.77370136	      0.00000000	      0.00000000	     26.36242357	     29.11108118	     33.25990435	     13.35131754	    -14.54444611	    -80.76401184	     32.53964621	     89.99559364	      0.00000000	      0.00000000	    -20.75095015	    -39.85448985	    -39.41702794	     74.16690888	     89.99559364	      0.00000000	      0.00000000
      7.20000000	      3.43488979	   -166.55226317	    -48.81312823	      0.30989633	      0.01021067	     -0.06691651	     -2.54610001	    -18.44908887	     22.14282470	     27.73479943	      0.48406357	      0.00000000	      0.00000000	      0.00000000	     21.99960815	    -18.61379428	    -39.40049572	     31.69196400	      0.55312912	      0.00000000	      0.00000000	      0.00000000	      0.03363562	      0.51368874	      0.38143194	      0.06246472	      0.68320603	      0.40527144	      0.05525997	      1.24898281	      0.40527144	      0.03844215	      1.24898281	      0.33375295	      0.03123404	      1.04751409	      0.30991345	      0.01921940	      0.79570387	      0.28607396	      0.24025589	      5.81094982	      2.12141004	      0.00000000	      0.00000000	     26.67792720	     29.79107674	     30.97662005	     15.59515775	     -9.89966515	     -1.35221658	     42.38468777	     89.99559364	      0.00000000	      0.00000000	    -15.01565344	    -41.82939142	    -36.30496676	     86.63429576	     89.99559364	      0.00000000	      0.00000000
      7.40000000	      4.07593771	   -167.29245996	    -45.05629529	      0.32534617	      0.00443915	     -0.06166339	     -2.17768303	    -15.95968727	     20.39046910	     30.44633239	      0.53138875	      0.00000000	      0.00000000	      0.00000000	     21.88665588	    -18.07889109	    -39.20368635	     30.67203615	      0.53532802	      0.00000000	      0.00000000	      0.00000000	      0.01629737	      0.59804941	      2.87904307	      0.03026584	      0.79540572	      3.05898327	      0.02677494	      1.45409735	      3.05898327	      0.01862626	      1.45409735	      2.51916269	      0.01513373	      1.21954237	      2.33922250	      0.00931231	      0.92637854	      2.15928231	      0.11641045	      6.76525458	     16.01237387	      0.00000000	      0.00000000	     27.19024290	     30.28499676	     28.90566727	     36.07240591	     -4.12409580	     22.84287880	     49.96953346	     89.99559364	      0.00000000	      0.00000000	      7.01678664	    -44.58271952	    -15.94601359	     91.95593581	     89.99559364	      0.00000000	      0.00000000
      7.60000000	      3.89251237	   -167.33267385	    -41.77584778	      0.33493881	     -0.00783063	     -0.05976347	     -2.61215310	    -14.63398908	     18.51724732	     30.91966321	      0.53964993	      0.00000000	      0.00000000	      0.00000000	     20.89193501	    -16.26147683	    -39.06200989	     28.15708709	      0.49143388	      0.00000000	      0.00000000	      0.00000000	      0.02370448	      0.43407404	      4.84584188	      0.04402158	      0.57731848	      5.14870700	      0.03894409	      1.05540763	      5.14870700	      0.02709185	      1.05540763	      4.24011165	      0.02201198	      0.88516379	      3.93724653	      0.01354474	      0.67238069	      3.63438141	      0.16931871	      4.91033239	     26.95111880	      0.00000000	      0.00000000	     27.65472395	     32.05174236	     24.30755938	     50.47731522	     -3.29352462	     18.24372976	     44.54950227	     89.99559364	      0.00000000	      0.00000000	     26.29362693	    -43.17344216	      0.66315420	     94.90433357	     89.99559364	      0.00000000	      0.00000000
      7.80000000	      3.46404750	   -166.78057861	    -38.01764845	      0.34046894	     -0.01840308	     -0.05959565	     -2.80520486	    -13.77699524	     16.61585962	     31.31287326	      0.54651274	      0.00000000	      0.00000000	      0.00000000	     20.36544837	    -14.06180473	    -38.85797238	     25.89485675	      0.45195051	      0.00000000	      0.00000000	      0.00000000	      0.04550379	      0.13677745	      6.37273334	      0.08450509	      0.18191401	      6.77102918	      0.07475818	      0.33256069	      6.77102918	      0.05200629	      0.33256069	      5.57614167	      0.04225482	      0.27891657	      5.17784584	      0.02600087	      0.21186827	      4.77955001	      0.32502904	      1.54725384	     35.44323103	      0.00000000	      0.00000000	     27.38967938	    -41.27405812	    -29.70649795	     62.10137565	     -7.25886522	     14.55002491	     43.01734887	     89.99559364	      0.00000000	      0.00000000	     42.24546042	    -40.13809791	     13.74624876	     97.88716327	     89.99559364	      0.00000000	      0.00000000
      8.00000000	      3.33782186	   -166.72338638	    -34.86060360	      0.34446262	     -0.02888214	     -0.05843922	     -3.27747619	    -12.77369483	     15.20376896	     31.17681134	      0.54413801	      0.00000000	      0.00000000	      0.00000000	     19.73713778	    -12.52959656	    -38.54660584	     23.67775937	      0.41325486	      0.00000000	      0.00000000	      0.00000000	      0.06884185	      0.00289205	      7.39193181	      0.12784620	      0.00384643	      7.85392755	      0.11310028	      0.00703174	      7.85392755	      0.07867935	      0.00703174	      6.46794033	      0.06392654	      0.00589748	      6.00594459	      0.03933623	      0.00447979	      5.54394886	      0.49173046	      0.03271550	     41.11170713	      0.00000000	      0.00000000	     27.23569126	    -41.01362556	    -33.05771558	     75.28107793	    -11.10375944	     16.88973183	     45.22020635	     89.99559364	      0.00000000	      0.00000000	     55.58908263	    -37.41884102	     21.19085295	     97.56826744	     89.99559364	      0.00000000	      0.00000000
